<?xml version="1.0" standalone="no"?>
<!DOCTYPE svg PUBLIC "-//W3C//DTD SVG 20010904//EN"
 "http://www.w3.org/TR/2001/REC-SVG-20010904/DTD/svg10.dtd">
<svg version="1.0" xmlns="http://www.w3.org/2000/svg"
 width="992.000000pt" height="992.000000pt" viewBox="0 0 992.000000 992.000000"
 preserveAspectRatio="xMidYMid meet">
<metadata>
Created by potrace 1.14, written by Peter Selinger 2001-2017
</metadata>
<g transform="translate(0.000000,992.000000) scale(0.100000,-0.100000)"
fill="#000000" stroke="none">
<path d="M6800 8983 c0 -4 -21 -8 -48 -9 -66 0 -177 -12 -242 -24 -30 -6 -66
-13 -80 -15 -14 -3 -48 -11 -77 -19 -28 -8 -54 -11 -57 -8 -3 3 -6 1 -6 -5 0
-5 -6 -10 -12 -10 -26 -1 -197 -66 -294 -112 -103 -49 -296 -165 -302 -182 -2
-5 -10 -9 -18 -9 -8 0 -17 -7 -20 -15 -4 -8 -10 -15 -15 -15 -9 0 -32 -18
-108 -86 -108 -98 -209 -206 -276 -299 -16 -22 -32 -42 -35 -45 -25 -21 -210
-349 -210 -373 0 -3 -8 -22 -17 -43 -10 -22 -18 -43 -19 -49 0 -5 -6 -22 -12
-36 -6 -15 -12 -35 -14 -45 -2 -11 -5 -21 -9 -24 -4 -4 -35 -119 -53 -200 -6
-25 -25 -161 -32 -225 -3 -33 -8 -63 -11 -67 -2 -5 1 -8 7 -8 6 0 8 -5 4 -12
-8 -13 -12 -218 -4 -218 3 0 5 -21 6 -48 1 -45 10 -125 19 -167 3 -11 7 -31 9
-45 3 -14 7 -35 10 -47 5 -21 3 -22 -67 -17 -40 3 -94 7 -122 9 -27 3 -79 7
-114 10 -64 5 -93 9 -163 19 -21 3 -54 8 -74 11 -21 3 -46 8 -58 10 -12 3 -34
7 -51 9 -16 2 -46 6 -65 10 -19 3 -46 8 -60 10 -14 2 -45 9 -70 15 -25 5 -61
13 -80 16 -19 3 -43 8 -52 11 -16 5 -38 10 -85 20 -12 2 -34 9 -48 14 -14 5
-25 8 -25 6 0 -2 -20 2 -45 10 -25 7 -45 10 -45 6 0 -4 -4 -2 -8 3 -4 6 -29
16 -57 23 -81 21 -189 53 -206 62 -9 5 -36 14 -60 21 -58 17 -64 19 -114 39
-11 4 -47 18 -80 31 -33 12 -66 27 -72 32 -7 5 -13 7 -13 4 0 -3 -25 5 -55 18
-30 14 -55 22 -55 19 0 -3 -12 3 -27 14 -16 11 -43 23 -60 27 -18 3 -33 11
-33 16 0 5 -6 9 -14 9 -17 0 -482 235 -496 251 -3 3 -12 9 -20 12 -8 4 -28 16
-45 27 -16 11 -37 23 -45 27 -8 4 -67 41 -130 82 -63 42 -119 78 -124 80 -5 2
-16 10 -25 17 -9 7 -58 43 -110 80 -101 72 -123 89 -153 117 -10 9 -18 14 -18
10 0 -5 -4 -3 -8 2 -4 6 -45 42 -92 80 -47 38 -87 71 -90 74 -3 4 -34 31 -70
61 -72 60 -456 442 -481 477 -8 12 -39 47 -67 78 -29 31 -52 60 -52 66 0 5 -7
12 -15 15 -8 3 -17 14 -20 25 -9 28 -18 24 -40 -18 -10 -21 -25 -45 -31 -53
-7 -8 -14 -19 -15 -25 -1 -5 -13 -35 -27 -65 -36 -82 -89 -230 -113 -318 -22
-81 -25 -93 -34 -157 -3 -22 -7 -47 -10 -55 -25 -89 -25 -491 1 -612 2 -13 7
-39 10 -58 2 -19 9 -50 14 -70 5 -19 11 -45 13 -57 2 -12 6 -26 10 -29 4 -4 7
-17 7 -29 0 -11 5 -26 12 -33 7 -7 9 -12 5 -12 -3 0 1 -19 9 -42 9 -24 17 -47
18 -53 1 -5 12 -32 24 -59 12 -27 22 -52 22 -57 0 -9 63 -131 115 -224 48 -86
185 -273 208 -283 4 -2 7 -8 7 -13 0 -26 341 -329 371 -329 5 0 9 -6 9 -14 0
-14 -38 -14 -61 0 -8 5 -9 3 -4 -6 5 -9 4 -11 -3 -6 -6 4 -33 9 -59 11 -26 3
-64 8 -83 11 -19 3 -48 7 -65 10 -31 4 -39 6 -90 18 -158 37 -357 110 -481
177 l-50 27 2 -77 c5 -197 41 -403 101 -579 20 -59 41 -122 47 -139 6 -18 14
-33 18 -33 5 0 8 -6 8 -12 0 -23 99 -210 155 -294 100 -150 229 -298 365 -417
62 -55 224 -173 285 -208 80 -46 222 -115 280 -138 33 -13 75 -30 93 -38 17
-8 45 -16 61 -18 16 -2 39 -8 50 -15 12 -6 21 -8 21 -5 0 3 10 0 22 -6 21 -11
36 -15 81 -18 29 -2 11 -18 -30 -26 -21 -5 -42 -9 -48 -11 -5 -1 -30 -5 -55
-9 -49 -8 -75 -13 -75 -15 0 -6 -153 -14 -290 -14 -176 -1 -312 10 -357 29
-27 11 -23 -15 18 -119 108 -269 245 -478 454 -687 173 -174 338 -291 555
-395 141 -68 332 -134 430 -149 22 -4 51 -10 65 -15 14 -5 48 -11 75 -14 28
-4 66 -8 85 -11 19 -3 65 -6 103 -7 37 -1 67 -5 67 -8 0 -3 -25 -23 -56 -45
-30 -22 -60 -45 -67 -51 -18 -16 -210 -142 -286 -188 -81 -50 -187 -107 -271
-147 -36 -17 -67 -34 -70 -38 -3 -3 -10 -7 -15 -8 -6 -1 -42 -16 -80 -33 -39
-17 -83 -38 -100 -45 -55 -24 -229 -87 -295 -107 -36 -10 -72 -22 -80 -25 -8
-4 -19 -8 -25 -8 -5 -1 -17 -5 -25 -8 -13 -5 -110 -31 -160 -42 -155 -36 -215
-48 -299 -62 -25 -4 -48 -8 -51 -8 -3 -1 -32 -5 -65 -9 -33 -4 -73 -9 -90 -12
-29 -4 -59 -7 -235 -19 -183 -13 -480 -5 -662 19 -16 2 -28 0 -28 -4 0 -7 142
-95 225 -141 17 -9 53 -29 80 -45 28 -16 86 -47 130 -69 44 -22 82 -43 83 -47
2 -5 9 -8 15 -8 6 0 47 -18 91 -39 45 -21 97 -46 116 -54 19 -8 62 -27 95 -42
33 -15 65 -28 70 -30 6 -1 24 -8 40 -15 17 -7 32 -14 35 -14 5 -1 53 -19 95
-36 32 -13 120 -44 125 -45 3 0 30 -9 60 -20 30 -11 58 -20 63 -21 4 -1 9 -3
12 -4 3 -1 8 -3 13 -4 9 -1 91 -26 112 -34 8 -3 20 -6 25 -7 6 0 17 -4 25 -7
8 -4 29 -10 45 -14 17 -4 35 -8 40 -10 6 -2 19 -5 30 -7 11 -3 61 -15 110 -27
50 -12 97 -23 105 -25 8 -2 60 -12 115 -23 120 -25 157 -32 210 -38 41 -4 80
-11 80 -14 0 -2 41 -8 110 -14 92 -9 156 -16 200 -21 213 -27 837 -27 1091 0
22 3 67 7 100 9 32 3 59 6 59 7 0 1 11 3 25 4 43 4 134 15 160 20 14 2 43 7
65 10 96 14 115 17 175 30 14 3 36 7 50 10 33 6 119 24 150 31 14 3 34 7 45 9
11 2 50 12 87 23 37 11 70 17 73 14 2 -3 10 0 17 5 7 6 29 14 48 18 19 4 55
14 80 22 25 8 53 16 63 18 9 2 21 6 25 9 5 3 19 7 33 10 22 4 204 67 239 83 8
3 17 7 20 8 105 28 524 219 700 318 19 11 55 31 80 45 24 14 84 49 133 79 48
29 92 53 96 53 5 0 12 7 15 16 3 8 10 13 15 10 5 -4 11 -3 13 1 1 5 37 30 78
58 41 27 77 52 80 55 3 3 28 21 55 40 28 19 59 42 69 52 11 10 23 18 27 18 4
0 14 6 21 13 7 7 58 48 113 91 55 43 105 84 110 90 6 6 28 26 50 45 22 18 82
72 134 120 81 75 128 122 286 285 30 32 94 102 150 166 17 19 61 73 99 119 37
46 72 89 77 95 20 23 173 232 198 271 14 22 34 49 44 59 9 11 17 25 17 32 0 7
4 14 8 16 8 3 116 172 159 248 11 19 37 63 57 97 20 34 36 66 36 71 0 6 4 12
9 14 8 3 221 429 221 443 0 3 11 30 24 58 13 29 33 77 46 107 12 30 28 69 35
85 7 17 21 55 31 85 11 30 23 58 27 61 5 3 8 8 6 10 -1 2 18 67 43 144 48 146
90 283 93 300 1 6 3 12 4 15 2 3 4 12 6 20 2 8 11 44 20 80 14 58 19 79 30
130 2 8 4 15 5 15 1 0 3 9 4 20 2 11 12 63 24 115 11 52 23 111 26 130 3 19 7
44 10 55 2 11 7 42 10 68 4 27 9 56 11 65 5 29 16 115 20 162 3 25 7 63 10 85
8 64 16 173 20 261 1 45 4 86 7 90 7 15 1 408 -7 426 -8 21 14 43 155 154 52
41 122 99 155 127 69 60 335 323 335 331 0 3 12 18 28 34 47 50 145 169 187
227 11 15 28 35 38 44 9 8 17 19 17 24 0 4 18 32 40 62 22 30 40 58 40 63 0 6
-46 -9 -102 -33 -57 -23 -161 -61 -233 -85 -71 -23 -137 -45 -145 -48 -8 -3
-19 -6 -25 -7 -5 -2 -30 -8 -55 -15 -25 -7 -52 -13 -60 -15 -8 -2 -44 -11 -79
-20 -35 -9 -76 -18 -90 -20 -14 -2 -37 -7 -51 -10 -14 -3 -38 -8 -55 -10 -16
-3 -41 -7 -55 -10 -29 -7 -104 -16 -140 -18 -14 -1 -28 -6 -32 -12 -5 -7 -8
-6 -8 1 0 6 33 31 73 57 40 25 81 55 92 66 10 12 22 21 26 21 11 0 83 64 179
160 99 99 174 180 165 180 -3 0 4 10 15 22 11 12 37 47 58 78 20 30 39 57 42
60 7 7 25 38 60 104 17 32 39 72 49 90 18 33 93 213 106 256 7 22 6 23 -9 11
-9 -7 -16 -10 -16 -5 0 5 -4 5 -8 -1 -4 -5 -18 -16 -32 -24 -49 -28 -286 -147
-340 -170 -30 -13 -75 -33 -100 -44 -58 -26 -250 -97 -270 -100 -8 -2 -21 -6
-27 -10 -7 -5 -23 -10 -35 -13 -38 -8 -41 -9 -93 -27 -27 -9 -61 -18 -75 -21
-14 -3 -70 -16 -125 -30 -136 -35 -144 -34 -192 17 -98 102 -276 238 -413 316
-124 71 -313 153 -415 181 -16 5 -55 16 -85 24 -30 9 -73 18 -95 22 -22 3 -42
7 -45 9 -4 2 -26 6 -51 9 -24 3 -55 8 -69 11 -14 3 -85 7 -159 10 -73 3 -137
8 -142 11 -5 3 -9 2 -9 -3z"/>
</g>
</svg>
